<svg xmlns="http://www.w3.org/2000/svg" width="172.988" height="203.139" viewBox="0 0 172.988 203.139">
  <g id="surface1" transform="translate(-38.924 0)">
    <path id="Path_30" data-name="Path 30" d="M202.774,135.655a102.488,102.488,0,0,1-24.546,38.239c-12.326,12.036-28.466,21.6-47.972,28.422a14.656,14.656,0,0,1-4.662.823h-.175a14.888,14.888,0,0,1-2.861-.282,15.415,15.415,0,0,1-1.967-.536c-19.53-6.811-35.69-16.371-48.028-28.407a102.3,102.3,0,0,1-24.542-38.231c-9.914-26.9-9.35-56.544-8.9-80.362l.008-.366c.091-1.967.15-4.033.183-6.314A21.53,21.53,0,0,1,59.591,27.55c23.356-1.3,41.424-8.921,56.861-23.968l.135-.124a13.013,13.013,0,0,1,17.666,0l.132.124c15.441,15.047,33.509,22.664,56.865,23.968a21.53,21.53,0,0,1,20.273,21.091c.033,2.3.091,4.36.183,6.314l0,.155C212.163,78.973,212.724,108.671,202.774,135.655Z" transform="translate(0 0)" fill="#ffd000"/>
    <path id="Path_31" data-name="Path 31" d="M334.126,135.657A102.488,102.488,0,0,1,309.58,173.9c-12.326,12.036-28.466,21.6-47.972,28.422a14.657,14.657,0,0,1-4.662.823V0a13.032,13.032,0,0,1,8.659,3.456l.132.124c15.441,15.047,33.509,22.664,56.865,23.968a21.53,21.53,0,0,1,20.273,21.091c.033,2.3.091,4.36.183,6.314l0,.155C343.515,78.975,344.076,108.673,334.126,135.657Z" transform="translate(-131.352 -0.002)" fill="#edbf00"/>
    <path id="Path_32" data-name="Path 32" d="M230.4,178.774A50.69,50.69,0,0,1,179.948,229.4h-.178a50.627,50.627,0,1,1,0-101.255h.178A50.689,50.689,0,0,1,230.4,178.774Z" transform="translate(-54.354 -77.205)" fill="#fff"/>
    <path id="Path_33" data-name="Path 33" d="M307.394,178.774A50.69,50.69,0,0,1,256.946,229.4V128.148A50.689,50.689,0,0,1,307.394,178.774Z" transform="translate(-131.352 -77.205)" fill="#e1ebf0"/>
    <path id="Path_34" data-name="Path 34" d="M240.8,221.741l-22.8,22.8-4.927,4.927a5.966,5.966,0,0,1-8.433,0l-10.593-10.6a5.959,5.959,0,0,1,8.428-8.428l6.382,6.382,23.516-23.516a5.96,5.96,0,1,1,8.428,8.428Z" transform="translate(-92.405 -127.461)" fill="#edbf00"/>
    <path id="Path_35" data-name="Path 35" d="M279.747,221.741l-22.8,22.8V227.684l14.373-14.372a5.96,5.96,0,0,1,8.428,8.428Z" transform="translate(-131.352 -127.461)" fill="#edbf00"/>
  </g>
</svg>
