<svg id="Group_30" data-name="Group 30" xmlns="http://www.w3.org/2000/svg" xmlns:xlink="http://www.w3.org/1999/xlink" width="144.487" height="82.681" viewBox="0 0 144.487 82.681">
  <defs>
    <clipPath id="clip-path">
      <rect id="Rectangle_3" data-name="Rectangle 3" width="77.25" height="36.503" fill="#ffd000"/>
    </clipPath>
  </defs>
  <g id="Mask_Group_1" data-name="Mask Group 1" clip-path="url(#clip-path)">
    <g id="bus" transform="translate(6.866 0)">
      <g id="Group_2" data-name="Group 2" transform="translate(14.037 25.586)">
        <g id="Group_1" data-name="Group 1">
          <path id="Path_1" data-name="Path 1" d="M38.531,92.1a5.459,5.459,0,1,0,5.459,5.459A5.465,5.465,0,0,0,38.531,92.1Zm0,8.436a2.977,2.977,0,1,1,2.977-2.977A2.981,2.981,0,0,1,38.531,100.539Z" transform="translate(-33.072 -92.103)" fill="#ffd000"/>
        </g>
      </g>
      <g id="Group_4" data-name="Group 4" transform="translate(9.966 0)">
        <g id="Group_3" data-name="Group 3">
          <path id="Path_2" data-name="Path 2" d="M70.24,31.825H63.882a1.241,1.241,0,0,0,0,2.481H70.24A4.318,4.318,0,0,1,74.4,37.48H63.882a1.241,1.241,0,0,0-1.241,1.241V49.876a1.241,1.241,0,0,0,1.241,1.241H74.551V61.651H70.91a5.457,5.457,0,0,0-10.64,0H60.16V38.732a1.241,1.241,0,0,0-1.241-1.241H48.995a1.241,1.241,0,0,0-1.241,1.241V48.7H24.72a1.241,1.241,0,1,0,0,2.481H47.754V61.65H41.427a1.241,1.241,0,0,0,0,2.481H60.281a5.457,5.457,0,0,0,10.619,0h4.891a1.241,1.241,0,0,0,1.241-1.241V38.617A6.8,6.8,0,0,0,70.24,31.825ZM57.679,49.576h-.784a1.241,1.241,0,0,0,0,2.481h.784V61.65H50.235V39.973h7.444Zm7.912,16.27a2.977,2.977,0,1,1,2.977-2.977A2.981,2.981,0,0,1,65.59,65.846Zm8.96-17.211H65.122V39.962h9.428Z" transform="translate(-23.48 -31.825)" fill="#ffd000"/>
        </g>
      </g>
      <g id="Group_6" data-name="Group 6" transform="translate(44.165)">
        <g id="Group_5" data-name="Group 5">
          <path id="Path_3" data-name="Path 3" d="M106.17,32.187a1.24,1.24,0,1,0,.363.877A1.25,1.25,0,0,0,106.17,32.187Z" transform="translate(-104.052 -31.824)" fill="#ffd000"/>
        </g>
      </g>
      <g id="Group_8" data-name="Group 8" transform="translate(0 0)">
        <g id="Group_7" data-name="Group 7">
          <path id="Path_4" data-name="Path 4" d="M40.443,31.825H6.792A6.8,6.8,0,0,0,.076,37.6,1.234,1.234,0,0,0,0,38.028V62.891a1.241,1.241,0,0,0,1.241,1.241h9.339a1.241,1.241,0,1,0,0-2.481h-8.1V46.215H6.7A1.241,1.241,0,0,0,7.94,44.975V38.028A1.241,1.241,0,0,0,6.7,36.787H2.89a4.316,4.316,0,0,1,3.9-2.481H40.443a1.241,1.241,0,0,0,0-2.481ZM5.459,39.268v4.466H2.481V39.268Z" transform="translate(0 -31.825)" fill="#ffd000"/>
        </g>
      </g>
      <g id="Group_10" data-name="Group 10" transform="translate(5.459 16.872)">
        <g id="Group_9" data-name="Group 9">
          <path id="Path_5" data-name="Path 5" d="M14.978,71.937a1.24,1.24,0,1,0,.363.877A1.25,1.25,0,0,0,14.978,71.937Z" transform="translate(-12.86 -71.574)" fill="#ffd000"/>
        </g>
      </g>
      <g id="Group_12" data-name="Group 12" transform="translate(22.331 4.963)">
        <g id="Group_11" data-name="Group 11">
          <path id="Path_6" data-name="Path 6" d="M60.8,43.516H53.851a1.241,1.241,0,0,0-1.241,1.241V51.7a1.241,1.241,0,0,0,1.241,1.241H60.8A1.241,1.241,0,0,0,62.039,51.7V44.756A1.241,1.241,0,0,0,60.8,43.516Zm-1.241,6.947H55.092V46h4.466Z" transform="translate(-52.61 -43.516)" fill="#ffd000"/>
        </g>
      </g>
      <g id="Group_14" data-name="Group 14" transform="translate(10.421 4.963)">
        <g id="Group_13" data-name="Group 13">
          <path id="Path_7" data-name="Path 7" d="M32.739,43.516H25.792a1.241,1.241,0,0,0-1.241,1.241V51.7a1.241,1.241,0,0,0,1.241,1.241h6.947A1.241,1.241,0,0,0,33.98,51.7V44.756A1.241,1.241,0,0,0,32.739,43.516ZM31.5,50.463H27.033V46H31.5Z" transform="translate(-24.552 -43.516)" fill="#ffd000"/>
        </g>
      </g>
    </g>
  </g>
  <g id="Group_29" data-name="Group 29" transform="translate(80.763 46.06)">
    <g id="Group_16" data-name="Group 16" transform="translate(38.688 25.669)">
      <g id="Group_15" data-name="Group 15">
        <path id="Path_8" data-name="Path 8" d="M310.848,320.6a5.476,5.476,0,1,0,5.476-5.476A5.482,5.482,0,0,0,310.848,320.6Zm2.489,0a2.987,2.987,0,1,1,2.987,2.987A2.991,2.991,0,0,1,313.337,320.6Z" transform="translate(-310.848 -315.119)" fill="#ffd000"/>
      </g>
    </g>
    <g id="Group_18" data-name="Group 18" transform="translate(0 0)">
      <g id="Group_17" data-name="Group 17">
        <path id="Path_9" data-name="Path 9" d="M0,115.7v24.353A1.245,1.245,0,0,0,1.245,141.3H6.152a5.475,5.475,0,0,0,10.653,0H35.72a1.245,1.245,0,1,0,0-2.489H29.373V128.3H52.481a1.245,1.245,0,1,0,0-2.489H29.373v-10a1.245,1.245,0,0,0-1.245-1.245H18.171a1.245,1.245,0,0,0-1.245,1.245v22.993h-.111a5.475,5.475,0,0,0-10.674,0H2.489V128.238h10.7a1.245,1.245,0,0,0,1.245-1.245V115.8a1.245,1.245,0,0,0-1.245-1.245H2.643a4.332,4.332,0,0,1,4.171-3.185h6.379a1.245,1.245,0,0,0,0-2.489H6.814A6.822,6.822,0,0,0,0,115.7Zm19.416,1.36h7.468v21.748H19.416v-9.624H20.2a1.245,1.245,0,1,0,0-2.489h-.787ZM8.491,140.028a2.987,2.987,0,1,1,2.987,2.987A2.991,2.991,0,0,1,8.491,140.028Zm-6-22.981h9.459v8.7H2.489Z" transform="translate(0 -108.884)" fill="#ffd000"/>
      </g>
    </g>
    <g id="Group_20" data-name="Group 20" transform="translate(16.927)">
      <g id="Group_19" data-name="Group 19">
        <path id="Path_10" data-name="Path 10" d="M136,110.126a1.245,1.245,0,1,0,.365-.88A1.254,1.254,0,0,0,136,110.126Z" transform="translate(-136 -108.881)" fill="#ffd000"/>
      </g>
    </g>
    <g id="Group_22" data-name="Group 22" transform="translate(21.905 0)">
      <g id="Group_21" data-name="Group 21">
        <path id="Path_11" data-name="Path 11" d="M176,110.129a1.245,1.245,0,0,0,1.245,1.245H211a4.33,4.33,0,0,1,3.915,2.489H211.1a1.245,1.245,0,0,0-1.245,1.245v6.97a1.245,1.245,0,0,0,1.245,1.245h4.232v15.485h-8.125a1.245,1.245,0,1,0,0,2.489h9.369a1.245,1.245,0,0,0,1.245-1.245V115.107a1.238,1.238,0,0,0-.076-.425,6.824,6.824,0,0,0-6.738-5.8h-33.76A1.245,1.245,0,0,0,176,110.129Zm39.33,6.223v4.481h-2.987v-4.481Z" transform="translate(-176 -108.884)" fill="#ffd000"/>
      </g>
    </g>
    <g id="Group_24" data-name="Group 24" transform="translate(55.759 16.927)">
      <g id="Group_23" data-name="Group 23" transform="translate(0 0)">
        <path id="Path_12" data-name="Path 12" d="M448,246.126a1.245,1.245,0,1,0,.365-.88A1.254,1.254,0,0,0,448,246.126Z" transform="translate(-448 -244.881)" fill="#ffd000"/>
      </g>
    </g>
    <g id="Group_26" data-name="Group 26" transform="translate(31.862 4.979)">
      <g id="Group_25" data-name="Group 25" transform="translate(0 0)">
        <path id="Path_13" data-name="Path 13" d="M256,150.129v6.97a1.245,1.245,0,0,0,1.245,1.245h6.97a1.245,1.245,0,0,0,1.245-1.245v-6.97a1.245,1.245,0,0,0-1.245-1.245h-6.97A1.245,1.245,0,0,0,256,150.129Zm2.489,1.245h4.481v4.481h-4.481Z" transform="translate(-256 -148.884)" fill="#ffd000"/>
      </g>
    </g>
    <g id="Group_28" data-name="Group 28" transform="translate(43.81 4.979)">
      <g id="Group_27" data-name="Group 27" transform="translate(0 0)">
        <path id="Path_14" data-name="Path 14" d="M352,150.129v6.97a1.245,1.245,0,0,0,1.245,1.245h6.97a1.245,1.245,0,0,0,1.245-1.245v-6.97a1.245,1.245,0,0,0-1.245-1.245h-6.97A1.245,1.245,0,0,0,352,150.129Zm2.489,1.245h4.481v4.481h-4.481Z" transform="translate(-352 -148.884)" fill="#ffd000"/>
      </g>
    </g>
  </g>
  <path id="Path_15" data-name="Path 15" d="M49.7,26.2a1,1,0,0,0-1,1,11.013,11.013,0,0,1-11,11H14.964A1.264,1.264,0,0,1,13.7,36.936V31.719A1.264,1.264,0,0,0,11.692,30.7L1.406,38.177a1.266,1.266,0,0,0,0,2.046L11.692,47.7A1.264,1.264,0,0,0,13.7,46.681V41.464A1.264,1.264,0,0,1,14.964,40.2H37.7a13.015,13.015,0,0,0,13-13A1,1,0,0,0,49.7,26.2ZM9.692,43.776,4.806,40.223a1.266,1.266,0,0,1,0-2.046l4.886-3.553A1.265,1.265,0,0,1,11.7,35.647v7.106A1.265,1.265,0,0,1,9.692,43.776Z" transform="translate(14.74 30.051)" fill="#fff"/>
  <path id="Path_16" data-name="Path 16" d="M1.7,25.2a1,1,0,0,0,1-1,11.013,11.013,0,0,1,11-11H36.436A1.264,1.264,0,0,1,37.7,14.464v5.217A1.264,1.264,0,0,0,39.708,20.7l10.286-7.48a1.266,1.266,0,0,0,0-2.046L39.708,3.7A1.264,1.264,0,0,0,37.7,4.719V9.936A1.264,1.264,0,0,1,36.436,11.2H13.7a13.015,13.015,0,0,0-13,13A1,1,0,0,0,1.7,25.2ZM41.708,7.624l4.886,3.553a1.266,1.266,0,0,1,0,2.046l-4.886,3.553A1.265,1.265,0,0,1,39.7,15.753V8.647A1.265,1.265,0,0,1,41.708,7.624Z" transform="translate(79.925 3.799)" fill="#fff"/>
</svg>
