<svg id="icon" xmlns="http://www.w3.org/2000/svg" width="36.885" height="36.885" viewBox="0 0 36.885 36.885">
  <circle id="Ellipse_1" data-name="Ellipse 1" cx="18.443" cy="18.443" r="18.443" fill="#ffd000"/>
  <path id="Path_56" data-name="Path 56" d="M104.155,98.779h0a4.552,4.552,0,0,0-2.053,5.891,32.779,32.779,0,0,0,5.581,8.6L109.407,115l11.46,11.46a18.521,18.521,0,0,0,7.123-6.108l-4.229-4.229a2.345,2.345,0,0,0-.625-.625L107.184,99.545A2.349,2.349,0,0,0,104.155,98.779Z" transform="translate(-94.379 -91.416)" fill="#edbf00"/>
  <path id="Path_57" data-name="Path 57" d="M119.565,113.075a1.733,1.733,0,0,0-1.953.005l-.847.581a2.641,2.641,0,0,1-3.1-.086,22.044,22.044,0,0,1-4.554-4.554,2.641,2.641,0,0,1-.086-3.1l.581-.847a1.733,1.733,0,0,0,.005-1.953l-2.423-3.571a2.35,2.35,0,0,0-3.03-.766h0a4.552,4.552,0,0,0-2.053,5.891,32.779,32.779,0,0,0,5.581,8.6L109.407,115a32.783,32.783,0,0,0,8.6,5.581,4.552,4.552,0,0,0,5.891-2.053h0a2.35,2.35,0,0,0-.766-3.03Z" transform="translate(-94.379 -91.418)" fill="#fff"/>
</svg>
