<svg xmlns="http://www.w3.org/2000/svg" width="51.4" height="46.928" viewBox="0 0 51.4 46.928">
  <g id="Group_50" data-name="Group 50" transform="translate(0 -2.236)">
    <path id="Path_49" data-name="Path 49" d="M1.7,25.2a1,1,0,0,0,1-1,11.013,11.013,0,0,1,11-11h24v8.964L51.4,12.2,37.7,2.236V11.2h-24a13.015,13.015,0,0,0-13,13A1,1,0,0,0,1.7,25.2Zm38-19.036L48,12.2l-8.3,6.036Z" fill="#ffd000"/>
    <path id="Path_50" data-name="Path 50" d="M49.7,26.2a1,1,0,0,0-1,1,11.013,11.013,0,0,1-11,11h-24V29.236L0,39.2l13.7,9.964V40.2h24a13.015,13.015,0,0,0,13-13A1,1,0,0,0,49.7,26.2Zm-38,19.036L3.4,39.2l8.3-6.036Z" fill="#ffd000"/>
  </g>
</svg>
