<svg xmlns="http://www.w3.org/2000/svg" xmlns:xlink="http://www.w3.org/1999/xlink" width="376.391" height="50.726" viewBox="0 0 376.391 50.726">
  <defs>
    <linearGradient id="linear-gradient" x1="-0.719" y1="-1.877" x2="-0.723" y2="-2.753" gradientUnits="objectBoundingBox">
      <stop offset="0" stop-color="#fcee21"/>
      <stop offset="1" stop-color="#fbb03b"/>
    </linearGradient>
    <linearGradient id="linear-gradient-2" x1="0.5" y1="1" x2="0.5" gradientUnits="objectBoundingBox">
      <stop offset="0" stop-color="#ff0"/>
      <stop offset="0.993" stop-color="#fbb03b"/>
    </linearGradient>
    <linearGradient id="linear-gradient-3" x1="0.5" y1="1" x2="0.5" gradientUnits="objectBoundingBox">
      <stop offset="0" stop-color="#fff"/>
      <stop offset="1" stop-color="#fff" stop-opacity="0"/>
    </linearGradient>
    <linearGradient id="linear-gradient-4" y1="0.5" x2="1" y2="0.5" gradientUnits="objectBoundingBox">
      <stop offset="0.007" stop-color="#fbb03b"/>
      <stop offset="0.341" stop-color="#fbb239"/>
      <stop offset="0.559" stop-color="#fbbb36"/>
      <stop offset="0.745" stop-color="#fbca2f"/>
      <stop offset="0.912" stop-color="#fbdf27"/>
      <stop offset="1" stop-color="#fcee21"/>
    </linearGradient>
    <linearGradient id="linear-gradient-5" y1="0.5" x2="1" y2="0.5" gradientUnits="objectBoundingBox">
      <stop offset="0" stop-color="#fff" stop-opacity="0"/>
      <stop offset="1" stop-color="#fff"/>
    </linearGradient>
  </defs>
  <g id="Group_73" data-name="Group 73" transform="translate(-248.609 -693.347)">
    <g id="Group_68" data-name="Group 68">
      <path id="Path_71" data-name="Path 71" d="M271.925,695.157a20.45,20.45,0,0,1,8.2,1.66,21.685,21.685,0,0,1,6.711,4.5,21.009,21.009,0,0,1,4.532,6.676,20.451,20.451,0,0,1,1.66,8.2,20.024,20.024,0,0,1-1.522,7.611,22.628,22.628,0,0,1-4.221,6.709,20.5,20.5,0,0,1-15.359,6.78H259.61v6.228h-11V695.157Zm-.069,31.064a10.159,10.159,0,0,0,7.126-2.871,9.892,9.892,0,0,0,2.179-3.183,10,10,0,0,0,0-7.819,10.656,10.656,0,0,0-2.144-3.216,9.92,9.92,0,0,0-3.182-2.179,9.727,9.727,0,0,0-3.91-.8H260.371a.673.673,0,0,0-.761.762V725.53q0,.69.761.691Z" fill="#fff"/>
      <path id="Path_72" data-name="Path 72" d="M324.231,694.949a20.415,20.415,0,0,1,8.2,1.66,21.832,21.832,0,0,1,6.745,4.532,21.023,21.023,0,0,1,4.567,6.745,21.049,21.049,0,0,1,.415,15.325,20.974,20.974,0,0,1-3.6,6.262,20.457,20.457,0,0,1-8.856,6.364l2.907,7.681h-11.9l-2.214-5.88a.543.543,0,0,0-.553-.415h-9.478c-.37,0-.555.206-.555.621v5.674H298.839V694.949Zm-.07,31.2a9.7,9.7,0,0,0,3.909-.8,10.553,10.553,0,0,0,3.217-2.145,9.928,9.928,0,0,0,2.18-3.182,9.731,9.731,0,0,0,.795-3.909,10.111,10.111,0,0,0-.761-3.91,9.866,9.866,0,0,0-2.145-3.216,10.315,10.315,0,0,0-3.217-2.179,9.721,9.721,0,0,0-3.908-.8H310.463q-.555,0-.555.625V725.6a.49.49,0,0,0,.555.554Z" fill="#fff"/>
      <path id="Path_73" data-name="Path 73" d="M395.354,743.518H383.591l-1.8-4.912a.6.6,0,0,0-.623-.485H360.276a.672.672,0,0,0-.623.485l-1.73,4.912H346.162l17.435-48.5h14.321Zm-31.2-17.366a.6.6,0,0,0,.07.622.653.653,0,0,0,.553.277h11.969q.9,0,.623-.9l-5.95-16.6a.712.712,0,0,0-.692-.485.6.6,0,0,0-.623.485Z" fill="#fff"/>
      <path id="Path_74" data-name="Path 74" d="M435.758,695.018l-17.573,48.5H408.5l-17.573-48.5h11.83L412.789,722.9a.614.614,0,0,0,1.106,0l10.033-27.882Z" fill="#fff"/>
    </g>
    <g id="Group_70" data-name="Group 70">
      <g id="Group_69" data-name="Group 69">
        <path id="Path_75" data-name="Path 75" d="M461.1,734.3a26.945,26.945,0,0,1-13.425-3.574l13.746,12.926L475.1,730.51A26.888,26.888,0,0,1,461.1,734.3Z" fill="url(#linear-gradient)"/>
      </g>
      <path id="Path_76" data-name="Path 76" d="M479.639,704.326c-4.73-9.865-17.014-13.811-27.435-8.814s-15.038,17.045-10.308,26.911c.181.376.371.742.573,1.1a18.674,18.674,0,0,0,2.476,3.43c4.225,4.135,11.295,5.237,17.678,2.334A14.907,14.907,0,0,1,459.88,699.6c6.294-2.883,13.267-1.867,17.524,2.117l2.706,3.685.029.059Q479.909,704.891,479.639,704.326Z" fill="url(#linear-gradient-2)"/>
      <path id="Path_77" data-name="Path 77" d="M479.639,704.326c-4.73-9.865-17.014-13.811-27.435-8.814s-15.038,17.045-10.308,26.911c.181.376.371.742.573,1.1a18.674,18.674,0,0,0,2.476,3.43c4.225,4.135,11.295,5.237,17.678,2.334A14.907,14.907,0,0,1,459.88,699.6c6.294-2.883,13.267-1.867,17.524,2.117l2.706,3.685.029.059Q479.909,704.891,479.639,704.326Z" opacity="0.67" fill="url(#linear-gradient-3)" style="mix-blend-mode: overlay;isolation: isolate"/>
      <path id="Path_78" data-name="Path 78" d="M480.613,706.358q-.27-.564-.573-1.1a18.641,18.641,0,0,0-2.475-3.431c-4.294-4.2-11.527-5.274-17.99-2.191a14.907,14.907,0,1,1,2.766,29.675c-6.808,2.979-14.308,1.385-18.317-3.5a14.976,14.976,0,0,1-1.625-2.43l-.029-.06q.231.573.5,1.136c4.73,9.865,17.014,13.811,27.435,8.814S485.343,716.223,480.613,706.358Z" fill="url(#linear-gradient-4)"/>
      <path id="Path_79" data-name="Path 79" d="M480.444,706.358c-.181-.376-.371-.743-.573-1.1a18.692,18.692,0,0,0-2.476-3.431c-4.293-4.2-11.526-5.274-17.989-2.191a14.907,14.907,0,1,1,2.765,29.675c-6.807,2.979-14.308,1.385-18.317-3.5a14.971,14.971,0,0,1-1.624-2.43l-.029-.06q.23.573.5,1.136c4.73,9.865,17.014,13.811,27.435,8.814S485.174,716.223,480.444,706.358Z" opacity="0.47" fill="url(#linear-gradient-5)" style="mix-blend-mode: overlay;isolation: isolate"/>
    </g>
    <g id="Group_72" data-name="Group 72">
      <g id="Group_71" data-name="Group 71">
        <path id="Path_80" data-name="Path 80" d="M526.41,719.026a14.074,14.074,0,0,1,2.733,4.5,14.649,14.649,0,0,1,.934,5.189,14.335,14.335,0,0,1-1.142,5.707,14.718,14.718,0,0,1-7.818,7.818,14.333,14.333,0,0,1-5.707,1.141H489.465V695.087H515.41a14.739,14.739,0,0,1,5.811,1.142,13.665,13.665,0,0,1,4.705,3.286,14.772,14.772,0,0,1,2.8,4.636,15.607,15.607,0,0,1,1,5.6A13.936,13.936,0,0,1,526.41,719.026Zm-25.945-5.949c0,.413.231.621.692.621h13.837a3.465,3.465,0,0,0,2.561-1.142,3.79,3.79,0,0,0,1.106-2.733,3.345,3.345,0,0,0-1.038-2.663,3.648,3.648,0,0,0-2.629-1.071H501.157c-.461,0-.692.206-.692.621Zm0,18.68c0,.415.231.621.692.621H515.34a3.651,3.651,0,0,0,2.63-1.071,3.565,3.565,0,0,0,1.107-2.664,4.139,4.139,0,0,0-1.142-2.733,3.357,3.357,0,0,0-2.525-1.141H501.157q-.691,0-.692.621Z" fill="#fff"/>
        <path id="Path_81" data-name="Path 81" d="M579.683,695.018v24.215q0,4.359-.345,8.441a18.362,18.362,0,0,1-2.352,7.611,14.754,14.754,0,0,1-7.2,6.365,21.734,21.734,0,0,1-4.946,1.452,39.553,39.553,0,0,1-12.35,0,21.646,21.646,0,0,1-4.982-1.452,15.1,15.1,0,0,1-7.2-6.365,17.028,17.028,0,0,1-1.522-3.667,25.207,25.207,0,0,1-.8-3.944,39.593,39.593,0,0,1-.277-4.116q-.035-2.112-.034-4.325V695.018h11.069v24.215q0,3.323.139,6.157a10.067,10.067,0,0,0,1.038,4.429,7.937,7.937,0,0,0,.518.657,3.988,3.988,0,0,0,1.315.9,11.686,11.686,0,0,0,2.56.8,21.652,21.652,0,0,0,4.324.345,22.208,22.208,0,0,0,4.359-.345,11.7,11.7,0,0,0,2.595-.8,3.558,3.558,0,0,0,1.279-.9c.231-.3.392-.518.485-.657a10.483,10.483,0,0,0,1.072-4.463q.171-2.87.173-6.123V695.018Z" fill="#fff"/>
        <path id="Path_82" data-name="Path 82" d="M618.151,716.88a16.132,16.132,0,0,1,5.085,5.225,13,13,0,0,1,0,13.075,16.113,16.113,0,0,1-5.085,5.225,19.985,19.985,0,0,1-6.02,2.733,26.52,26.52,0,0,1-7.057.934,26.12,26.12,0,0,1-7.022-.934A20.969,20.969,0,0,1,592,740.405a16.862,16.862,0,0,1-3.252-2.769l-1.107-1.314,3.6-11,3.044,2.907a8.871,8.871,0,0,0,1.142,1c.3.208.818.564,1.556,1.073l.485.275a10.88,10.88,0,0,0,3.425,1.524,16.277,16.277,0,0,0,8.406,0,11.917,11.917,0,0,0,3.459-1.524,2.308,2.308,0,0,0,0-3.942,11.32,11.32,0,0,0-3.459-1.488,16.758,16.758,0,0,0-4.221-.519,26.04,26.04,0,0,1-7.022-.934A20.969,20.969,0,0,1,592,720.963a15.748,15.748,0,0,1-5.051-5.223,13.228,13.228,0,0,1,0-13.077A15.739,15.739,0,0,1,592,697.44a20.943,20.943,0,0,1,6.054-2.733,26.04,26.04,0,0,1,7.022-.934,26.438,26.438,0,0,1,7.057.934,19.961,19.961,0,0,1,6.02,2.733,15.3,15.3,0,0,1,1.729,1.279q.761.659,1.522,1.419l1.107,1.245-3.6,11.347-3.114-3.182q-.553-.555-.934-.865a12.885,12.885,0,0,0-1.28-.865,1.839,1.839,0,0,0-.381-.277c-.162-.093-.334-.184-.518-.277a11.018,11.018,0,0,0-3.39-1.522,16.22,16.22,0,0,0-8.406,0,10.925,10.925,0,0,0-3.425,1.522,2.31,2.31,0,0,0,0,3.944,10.381,10.381,0,0,0,3.425,1.487,16.9,16.9,0,0,0,4.185.518,26.52,26.52,0,0,1,7.057.934A20.058,20.058,0,0,1,618.151,716.88Z" fill="#fff"/>
      </g>
    </g>
  </g>
</svg>
